<?xml version="1.0" encoding="UTF-8" standalone="no"?>
<!-- Generator: Adobe Illustrator 24.0.1, SVG Export Plug-In . SVG Version: 6.00 Build 0)  -->

<svg
   version="1.1"
   id="Слой_1"
   x="0px"
   y="0px"
   viewBox="0 0 520.20002 91.262975"
   xml:space="preserve"
   sodipodi:docname="bruhinsw.svg"
   width="520.20001"
   height="91.262978"
   inkscape:version="1.1.2 (0a00cf5339, 2022-02-04, custom)"
   xmlns:inkscape="http://www.inkscape.org/namespaces/inkscape"
   xmlns:sodipodi="http://sodipodi.sourceforge.net/DTD/sodipodi-0.dtd"
   xmlns="http://www.w3.org/2000/svg"
   xmlns:svg="http://www.w3.org/2000/svg"><defs
   id="defs67" /><sodipodi:namedview
   id="namedview65"
   pagecolor="#ffffff"
   bordercolor="#666666"
   borderopacity="1.0"
   inkscape:pageshadow="2"
   inkscape:pageopacity="0.0"
   inkscape:pagecheckerboard="0"
   showgrid="false"
   fit-margin-top="0"
   fit-margin-left="25"
   fit-margin-right="25"
   fit-margin-bottom="0"
   inkscape:zoom="1.0048699"
   inkscape:cx="216.94351"
   inkscape:cy="-16.917613"
   inkscape:window-width="1914"
   inkscape:window-height="1048"
   inkscape:window-x="0"
   inkscape:window-y="16"
   inkscape:window-maximized="0"
   inkscape:current-layer="Слой_1" />
<g
   id="g30"
   transform="translate(-27.6,-367.3)">
	<polygon
   fill="#238dc1"
   points="216.4,392.7 241.1,417.4 216.3,442.1 229.2,455.1 266.9,417.4 229.4,379.8 "
   id="polygon2" />
	<path
   fill="#1c355e"
   d="m 159.4,381 c 1.4,0 2.9,0.4 4.2,1 0.5,-5 -1,-9.9 -2.6,-14.7 -1.9,4.7 -3.7,9.4 -4.1,14.1 0.8,-0.2 1.6,-0.4 2.5,-0.4 z"
   id="path4" />
	<path
   fill="#1c355e"
   d="m 140.8,387.1 v 0 c 0.2,0 0.5,0 0.7,0 -0.2,-4.5 1.3,-8.7 2.6,-13 -5.1,3.6 -7.4,8.6 -8.2,14.4 1.5,-0.8 3.2,-1.4 4.9,-1.4 z"
   id="path6" />
	<path
   fill="#1c355e"
   d="m 128.4,401.5 c 0.2,-2.5 0.7,-4.9 1.1,-7.4 -4.5,4.2 -6.4,9.4 -6.5,15.3 1.5,-1.4 3.4,-2.2 5.5,-2.2 -0.1,-2 -0.2,-3.8 -0.1,-5.7 z"
   id="path8" />
	<path
   fill="#1c355e"
   d="m 177.9,387 v 0 c 1.6,0 3.1,0.5 4.5,1.5 -0.1,-6.3 -2.1,-11.6 -7.1,-16.2 1.2,5.2 2.3,10.1 1.5,14.8 0.4,0 0.7,-0.1 1.1,-0.1 z"
   id="path10" />
	<path
   fill="#1c355e"
   d="m 192.7,403.2 c 0.7,0 1.5,0.1 2.3,0.3 0.7,0.2 1.4,0.5 2.1,0.9 0,-6 -3.3,-13.4 -7,-15.1 1.5,4.7 2,9.4 1.4,14.1 0.4,-0.1 0.8,-0.2 1.2,-0.2 z"
   id="path12" />
	<path
   fill="#1c355e"
   d="m 145.5,392.5 c -1.4,-1.4 -3.1,-2.1 -4.7,-2.1 -2.2,0 -4.3,1.3 -5.6,3.8 -1.4,2.8 -1.6,5.8 -1.3,8.8 0.5,4 1.8,7.7 4.9,10.6 1.6,1.4 3.2,2.1 4.8,2.1 2.2,0 4.1,-1.3 5.4,-3.9 0.9,-2 1.2,-4.3 1.5,-5.5 -0.1,-1.7 -0.2,-3.2 -0.5,-4.7 -0.2,-0.7 -0.4,-1.4 -0.5,-2.2 -0.7,-2.6 -2,-4.9 -4,-6.9 z"
   id="path14" />
	<path
   fill="#1c355e"
   d="m 167.5,395.7 c 0.1,-3 -0.3,-5.6 -1.7,-8 -1.4,-2.5 -4,-4.1 -6.5,-4.1 -1.8,0 -3.7,0.9 -5.1,2.9 -3.5,4.9 -3.2,14.7 0.8,19.1 0.9,1 2.3,1.9 3.6,2.2 0.5,0.1 0.9,0.2 1.4,0.2 2.4,0 4.6,-1.7 5.9,-4.5 1.1,-2.7 1.9,-5.3 1.6,-7.8 z"
   id="path16" />
	<path
   fill="#1c355e"
   d="m 180.4,413 c 4.8,-4.6 6,-14.3 2.5,-20 -1.3,-2.2 -3.2,-3.3 -5,-3.3 -1.8,0 -3.7,1 -5.1,3.1 -2.2,3.1 -3,6.6 -3.1,10.3 0.1,3.5 0.6,6.8 3,9.5 1.2,1.3 2.6,1.9 4,1.9 1.3,0.1 2.6,-0.4 3.7,-1.5 z"
   id="path18" />
	<path
   fill="#1c355e"
   d="m 199,413.4 c -0.2,-3.4 -2.1,-6.5 -4.8,-7.1 -0.6,-0.1 -1.1,-0.2 -1.6,-0.2 -2.4,0 -4.3,1.4 -5.9,3.3 -3.2,3.8 -4.4,8.3 -3.6,13.2 0.4,2.8 1.5,5.4 4.6,6.3 0.6,0.2 1.2,0.2 1.7,0.2 2.2,0 4.1,-1.3 5.6,-3 2.8,-3 3.9,-6.7 4,-10.8 0,-0.6 0.1,-1.2 0,-1.9 z"
   id="path20" />
	<path
   fill="#1c355e"
   d="m 136.9,421.1 c -0.5,-3.7 -1.7,-6.8 -4.4,-9.1 -1.2,-1 -2.6,-1.6 -3.9,-1.6 -1.9,0 -3.7,1.1 -4.7,3.3 -0.8,1.6 -1.2,3.4 -1.4,5.2 -0.5,4.4 0.3,8.5 3.2,11.9 1.5,1.7 3.2,2.6 4.9,2.6 2,0 3.9,-1.2 5.1,-3.5 0.2,-0.4 0.4,-0.8 0.5,-1.3 0.9,-2.4 1.1,-5 0.7,-7.5 z"
   id="path22" />
	<path
   fill="#1c355e"
   d="M 175.6,457.2 Z"
   id="path24" />
	<path
   fill="#1c355e"
   d="m 184,430.2 c -4.8,-2.1 -7.9,-5.6 -9.2,-10.9 -0.2,-0.9 -0.8,-1.9 -1.4,-2.7 -0.4,-0.5 -0.9,-1 -1.4,-1.3 -0.5,-0.3 -1,-0.6 -1.4,-0.9 -5.6,-3.2 -12.6,-3.4 -18.7,-0.6 -0.9,0.4 -1.9,0.9 -2.7,1.5 -1.5,1 -2.7,2.2 -3.7,3.6 -1.4,1.9 -2.3,4.1 -3.1,6.5 -1.8,5.6 -4.8,10.1 -10.5,12.4 -2.7,1.1 -4.8,3.1 -5.7,6.1 -1.8,5.9 3.9,14.1 10.2,14.6 3.3,0.3 6.4,-0.5 9.3,-1.8 6.2,-2.8 12.5,-3.3 19,-1.3 3.6,1.1 7.4,1.1 11.1,1.9 7.1,0.4 12,-3.2 15.9,-8.6 1.4,-2 2.4,-4.2 2.6,-6.7 0.4,-3.7 -1,-6.9 -4.2,-8.7 -0.7,-0.4 -1.5,-0.9 -2.2,-1.3 -0.7,-0.4 -1.5,-0.8 -2.3,-1.1 -0.7,-0.3 -1.1,-0.5 -1.6,-0.7 z m -8.4,27 z"
   id="path26" />
	<polygon
   fill="#238dc1"
   points="103.1,442.1 78.5,417.5 103.3,392.7 90.3,379.8 52.6,417.5 90.2,455.1 "
   id="polygon28" />
</g>
<g
   id="g44"
   transform="translate(-27.6,-367.3)">
	<path
   fill="#1c355e"
   d="m 345.2,382.2 c 2.2,0 6.2,0.2 9.1,2.5 1.2,1 3.6,3.4 3.6,8.2 0,2 -0.4,5.4 -3.9,7.8 5.5,1.4 7.6,6.2 7.6,10 0,3.8 -1.9,6.9 -4,8.6 -3.2,2.5 -6.8,2.6 -9.5,2.6 h -9.9 v -39.7 z m -2.7,17.4 h 3.3 c 2.3,0 7.8,-0.5 7.8,-6.6 0,-6.5 -6.4,-6.7 -7.7,-6.7 h -3.5 v 13.3 z m 0,18.1 h 5.1 c 2.6,0 5.1,-0.2 7,-1.7 1.5,-1.1 2.6,-3.1 2.6,-5.5 0,-3.2 -1.8,-5 -3.4,-5.8 -1.5,-0.8 -3.6,-1.2 -6.7,-1.2 h -4.5 v 14.2 z"
   id="path32" />
	<path
   fill="#1c355e"
   d="m 375.1,382.2 c 2.7,0 6.7,0.2 9.6,2.2 2.3,1.5 4.3,4.6 4.3,8.8 0,6.1 -4,10.5 -10,10.9 l 12.6,17.7 h -5.4 L 374.1,404.4 H 373 v 17.4 h -4.4 v -39.7 h 6.5 z m -1.9,18.3 h 2.8 c 5.5,0 8.7,-2.6 8.7,-7.3 0,-2.2 -0.7,-4.4 -3.2,-5.8 -1.8,-1 -3.8,-1.1 -5.7,-1.1 h -2.7 v 14.2 z"
   id="path34" />
	<path
   fill="#1c355e"
   d="m 401.4,406.5 c 0,3.3 0,7 3.2,9.6 1.6,1.4 4.3,2.3 6.5,2.3 2.2,0 4.9,-0.9 6.5,-2.3 3.2,-2.7 3.2,-6.3 3.2,-9.6 v -24.3 h 4.4 v 25.5 c 0,3.3 -0.4,6.5 -2.5,9.5 -2.4,3.3 -6.5,5.4 -11.6,5.4 -5.1,0 -9.2,-2.1 -11.6,-5.4 -2.1,-3 -2.5,-6.2 -2.5,-9.5 v -25.5 h 4.4 z"
   id="path36" />
	<path
   fill="#1c355e"
   d="m 439.1,398.3 h 20.4 v -16.1 h 4.4 v 39.7 h -4.4 v -19.4 h -20.4 v 19.4 h -4.4 v -39.7 h 4.4 z"
   id="path38" />
	<path
   fill="#1c355e"
   d="m 478,382.2 v 39.7 h -4.4 v -39.7 z"
   id="path40" />
	<path
   fill="#1c355e"
   d="m 487.5,421.8 v -41.4 l 30.9,32.4 V 382 h 4.4 v 41.5 l -30.9,-32.4 v 30.6 h -4.4 z"
   id="path42" />
</g>
<g
   id="g62"
   transform="translate(-27.6,-367.3)">
	<path
   fill="#1c355e"
   d="m 345.3,442 c -0.2,-0.5 -0.7,-1 -1.1,-1.4 -0.4,-0.3 -1,-0.6 -2,-0.6 -1.8,0 -3,1.1 -3,2.8 0,0.7 0.2,1.1 0.7,1.6 0.5,0.5 1.2,0.8 1.9,1.1 l 1.7,0.8 c 1.1,0.5 2,1 2.8,1.7 0.9,0.9 1.3,2 1.3,3.3 0,3.3 -2.5,5.6 -5.7,5.6 -1.2,0 -2.7,-0.2 -3.9,-1.5 -0.9,-0.9 -1.4,-2.1 -1.7,-3.2 l 2,-0.5 c 0.1,1 0.6,1.8 1.1,2.3 0.8,0.8 1.7,1 2.6,1 2.5,0 3.6,-1.8 3.6,-3.6 0,-0.8 -0.2,-1.5 -0.9,-2.1 -0.5,-0.5 -1.2,-0.8 -2.2,-1.2 l -1.6,-0.8 c -0.7,-0.3 -1.6,-0.7 -2.4,-1.5 -0.8,-0.8 -1.2,-1.6 -1.2,-3 0,-2.8 2.1,-4.7 5.1,-4.7 1.1,0 2,0.2 2.9,0.8 0.7,0.5 1.4,1.2 1.8,2 z"
   id="path46" />
	<path
   fill="#1c355e"
   d="m 355.4,447.5 c 0,-5.4 4.2,-9.4 9.4,-9.4 5.2,0 9.4,4 9.4,9.4 0,5.4 -4.2,9.4 -9.4,9.4 -5.2,0 -9.4,-4 -9.4,-9.4 z m 2,0 c 0,4.2 3.3,7.5 7.4,7.5 4.1,0 7.4,-3.3 7.4,-7.5 0,-4.2 -3.3,-7.5 -7.4,-7.5 -4.1,0 -7.4,3.3 -7.4,7.5 z"
   id="path48" />
	<path
   fill="#1c355e"
   d="m 391.6,440.3 h -6.2 v 5.4 h 6 v 1.9 h -6 v 9 h -2 v -18.1 h 8.3 v 1.8 z"
   id="path50" />
	<path
   fill="#1c355e"
   d="m 405.4,440.3 v 16.2 h -2 V 440.3 H 399 v -1.9 h 10.8 v 1.9 z"
   id="path52" />
	<path
   fill="#1c355e"
   d="m 419,438.4 4.8,13.6 5.7,-14.5 5.4,14.5 5.3,-13.6 h 2.2 l -7.6,19.1 -5.3,-14.5 -5.7,14.5 -7,-19.1 z"
   id="path54" />
	<path
   fill="#1c355e"
   d="m 458.8,451.4 h -7.7 l -2.2,5.1 h -2.2 l 8.3,-19 8.1,19 h -2.2 z m -0.8,-1.9 -3,-7.3 -3.1,7.3 z"
   id="path56" />
	<path
   fill="#1c355e"
   d="m 474,438.4 c 1.2,0 3,0.1 4.4,1 1.1,0.7 2,2.1 2,4 0,2.8 -1.8,4.8 -4.6,5 l 5.8,8.1 h -2.4 l -5.5,-7.9 h -0.5 v 7.9 h -2 v -18.1 z m -0.9,8.4 h 1.3 c 2.5,0 4,-1.2 4,-3.3 0,-1 -0.3,-2 -1.4,-2.7 -0.8,-0.5 -1.7,-0.5 -2.6,-0.5 h -1.2 v 6.5 z"
   id="path58" />
	<path
   fill="#1c355e"
   d="m 499.3,440.3 h -7.4 v 5.4 h 7.2 v 1.9 h -7.2 v 7 h 7.4 v 1.9 h -9.4 v -18.1 h 9.4 z"
   id="path60" />
</g>
</svg>
